<?xml version="1.0" encoding="UTF-8"?> <svg xmlns="http://www.w3.org/2000/svg" width="302.543" height="58.184" viewBox="0 0 302.543 58.184"><g id="Logo_-_Transparent_Horizontal" data-name="Logo - Transparent Horizontal" transform="translate(-29 -28.627)"><g id="Logo-H" transform="translate(29 28.627)"><g id="Group_461" data-name="Group 461" transform="translate(93.644 0)"><path id="Path_1503" data-name="Path 1503" d="M0,247.873Q.706,246,1.7,243.492T3.884,238.1q1.181-2.882,2.447-5.847t2.483-5.764a4.44,4.44,0,0,1,1.533-2.01,4.432,4.432,0,0,1,2.483-.614,4.69,4.69,0,0,1,1.132.169,12.8,12.8,0,0,1,1.249.393,1.989,1.989,0,0,1,.8.461q.337.613,1.047,2.166t1.636,3.68q.931,2.132,1.943,4.552t1.993,4.808q.98,2.384,1.756,4.415t1.251,3.36H19.418q-.4-1.2-.861-2.4t-1.031-2.643H7.7q-.441,1.025-.861,2.182t-1,2.865Zm11.817-15.651q-.541,1.363-1.1,2.829l-1,2.626H15.6c-.2-.567-.444-1.216-.725-1.942s-.564-1.46-.846-2.2-.547-1.416-.793-2.03-.439-1.09-.574-1.43q-.3.786-.845,2.15Z" transform="translate(0 -222.74)" fill="#1a263b"></path><path id="Path_1504" data-name="Path 1504" d="M105.347,261.338a11.009,11.009,0,0,1-3.175,1.449,13.3,13.3,0,0,1-3.715.528,10,10,0,0,1-4.88-1.159,8.342,8.342,0,0,1-3.292-3.223,9.475,9.475,0,0,1-1.181-4.79,9.276,9.276,0,0,1,1.217-4.791,8.528,8.528,0,0,1,3.36-3.22,10.317,10.317,0,0,1,4.982-1.158,11.878,11.878,0,0,1,3.36.46,5.356,5.356,0,0,1,2.344,1.244,2.516,2.516,0,0,1,.812,1.808,2.964,2.964,0,0,1-.523,1.653,4.559,4.559,0,0,1-1.367,1.347,5.1,5.1,0,0,0-1.89-1.228,6.548,6.548,0,0,0-2.363-.441,4.108,4.108,0,0,0-4.358,4.328,4.026,4.026,0,0,0,1.216,3.1,4.45,4.45,0,0,0,3.143,1.125,7.257,7.257,0,0,0,2.228-.358,5.609,5.609,0,0,0,1.724-.835Z" transform="translate(-63.428 -237.707)" fill="#1a263b"></path><path id="Path_1505" data-name="Path 1505" d="M165.357,261.338a11.05,11.05,0,0,1-3.176,1.449,13.288,13.288,0,0,1-3.714.53,9.981,9.981,0,0,1-4.878-1.159,8.326,8.326,0,0,1-3.291-3.223,9.452,9.452,0,0,1-1.183-4.79,9.283,9.283,0,0,1,1.215-4.791,8.528,8.528,0,0,1,3.362-3.22,10.31,10.31,0,0,1,4.981-1.159,11.837,11.837,0,0,1,3.359.46,5.383,5.383,0,0,1,2.348,1.245,2.524,2.524,0,0,1,.812,1.808,2.976,2.976,0,0,1-.525,1.653,4.533,4.533,0,0,1-1.368,1.347,5.074,5.074,0,0,0-1.89-1.228,6.551,6.551,0,0,0-2.366-.441,4.28,4.28,0,0,0-3.157,1.193,4.231,4.231,0,0,0-1.2,3.135,4.024,4.024,0,0,0,1.217,3.1,4.447,4.447,0,0,0,3.141,1.125,7.248,7.248,0,0,0,2.229-.358,5.572,5.572,0,0,0,1.723-.835Z" transform="translate(-106.148 -237.707)" fill="#1a263b"></path><path id="Path_1506" data-name="Path 1506" d="M219.007,263.319a9.471,9.471,0,0,1-4.746-1.159,8.25,8.25,0,0,1-3.189-3.223,9.692,9.692,0,0,1-1.149-4.79,9.3,9.3,0,0,1,1.2-4.757,8.621,8.621,0,0,1,3.294-3.237,9.528,9.528,0,0,1,4.76-1.177,9.691,9.691,0,0,1,3.987.783,6.847,6.847,0,0,1,2.769,2.147,5.086,5.086,0,0,1,1.013,3.1,4.425,4.425,0,0,1-2.213,4.124q-2.208,1.3-7.142,1.3c-.428,0-.788,0-1.08-.017s-.565-.027-.812-.051a2.481,2.481,0,0,0,1.417,1.706,6.493,6.493,0,0,0,3.074.646,9.2,9.2,0,0,0,1.554-.154,12.263,12.263,0,0,0,1.671-.407,5.277,5.277,0,0,0,1.165-.495l1.89,3.819a8.918,8.918,0,0,1-2.041.937,17.621,17.621,0,0,1-2.684.665,16.479,16.479,0,0,1-2.737.239m.133-14.115a3.592,3.592,0,0,0-2.614,1.039,3.537,3.537,0,0,0-1.066,2.644,4.42,4.42,0,0,0,.558.034h.523a11.326,11.326,0,0,0,3.966-.495c.8-.328,1.2-.811,1.2-1.448A1.5,1.5,0,0,0,221,249.7a3.184,3.184,0,0,0-1.857-.5Z" transform="translate(-149.434 -237.709)" fill="#1a263b"></path><path id="Path_1507" data-name="Path 1507" d="M276.971,250.911a5.087,5.087,0,0,1,2.126-4.416q2.126-1.518,6.316-1.516a13.464,13.464,0,0,1,5.3.869q1.994.869,1.994,2.266a2.565,2.565,0,0,1-.458,1.365,2.853,2.853,0,0,1-1.132,1.056,3.425,3.425,0,0,0-1.383-.767,14.344,14.344,0,0,0-2.261-.58,13.726,13.726,0,0,0-2.365-.222q-2.7,0-2.7,1.3a.877.877,0,0,0,.508.82,5.437,5.437,0,0,0,1.687.443l3.04.41q5.908.816,5.909,5.319a5.257,5.257,0,0,1-2.161,4.449,9.768,9.768,0,0,1-5.976,1.619,21,21,0,0,1-6.688-1.125,8.421,8.421,0,0,1-2.263-1.127l1.926-3.547a8.385,8.385,0,0,0,2.836,1.193,15.228,15.228,0,0,0,3.814.48q2.8,0,2.8-1.193a.937.937,0,0,0-.558-.851,5.692,5.692,0,0,0-1.873-.479l-3.042-.409q-5.4-.714-5.4-5.353" transform="translate(-196.806 -237.712)" fill="#1a263b"></path><path id="Path_1508" data-name="Path 1508" d="M343.151,250.911a5.087,5.087,0,0,1,2.126-4.416q2.126-1.518,6.315-1.516a13.457,13.457,0,0,1,5.3.869q1.992.869,1.991,2.266a2.566,2.566,0,0,1-.456,1.365,2.888,2.888,0,0,1-1.131,1.056,3.456,3.456,0,0,0-1.385-.767,14.354,14.354,0,0,0-2.262-.58,13.666,13.666,0,0,0-2.365-.222q-2.7,0-2.7,1.3a.878.878,0,0,0,.508.82,5.458,5.458,0,0,0,1.688.443l3.039.41q5.91.816,5.909,5.319a5.257,5.257,0,0,1-2.161,4.449,9.771,9.771,0,0,1-5.977,1.619A21.022,21.022,0,0,1,344.9,262.2a8.4,8.4,0,0,1-2.262-1.127l1.926-3.547a8.338,8.338,0,0,0,2.835,1.193,15.235,15.235,0,0,0,3.817.479q2.8,0,2.8-1.193a.936.936,0,0,0-.558-.851,5.691,5.691,0,0,0-1.873-.479l-3.04-.409q-5.4-.713-5.4-5.351" transform="translate(-243.915 -237.712)" fill="#1a263b"></path><path id="Path_1509" data-name="Path 1509" d="M410.915,225.237a3.223,3.223,0,0,1,0-4.347,2.819,2.819,0,0,1,2.126-.889,2.849,2.849,0,0,1,2.161.889,3.213,3.213,0,0,1,0,4.347,2.82,2.82,0,0,1-2.161.9,2.79,2.79,0,0,1-2.126-.9m4.864,19.9h-5.437V230.165a2.2,2.2,0,0,1,.744-1.806,3.227,3.227,0,0,1,2.092-.615,6.99,6.99,0,0,1,2.6.511Z" transform="translate(-291.915 -220)" fill="#1a263b"></path><path id="Path_1510" data-name="Path 1510" d="M441.009,222.434a2.211,2.211,0,0,1,.742-1.808,3.2,3.2,0,0,1,2.092-.616,6.792,6.792,0,0,1,1.353.137,6.916,6.916,0,0,1,1.249.376v8.627a5.712,5.712,0,0,1,2.126-1.381,8.158,8.158,0,0,1,7.041.7,8.645,8.645,0,0,1,2.987,3.256,9.762,9.762,0,0,1,1.116,4.723,9.529,9.529,0,0,1-1.165,4.739,8.316,8.316,0,0,1-3.275,3.255,10.142,10.142,0,0,1-5.016,1.177,9.95,9.95,0,0,1-4.913-1.159,7.857,7.857,0,0,1-3.207-3.359,11.385,11.385,0,0,1-1.132-5.267Zm12.055,10.961a4.009,4.009,0,0,0-5.605,0,4.746,4.746,0,0,0,0,6.035,4.009,4.009,0,0,0,5.605,0,4.752,4.752,0,0,0,0-6.035" transform="translate(-313.935 -220.007)" fill="#1a263b"></path><path id="Path_1511" data-name="Path 1511" d="M517,225.238a3.223,3.223,0,0,1,0-4.347,2.821,2.821,0,0,1,2.128-.889,2.854,2.854,0,0,1,2.161.889,3.216,3.216,0,0,1,0,4.347,2.824,2.824,0,0,1-2.161.9,2.79,2.79,0,0,1-2.128-.9m4.863,19.9h-5.437V230.165a2.205,2.205,0,0,1,.744-1.806,3.229,3.229,0,0,1,2.092-.615,7.007,7.007,0,0,1,2.6.511Z" transform="translate(-367.431 -220)" fill="#1a263b"></path><path id="Path_1512" data-name="Path 1512" d="M555.775,245.14h-5.439V222.434a2.21,2.21,0,0,1,.744-1.808,3.194,3.194,0,0,1,2.094-.616,6.816,6.816,0,0,1,1.35.137,6.971,6.971,0,0,1,1.249.376Z" transform="translate(-391.761 -220.007)" fill="#1a263b"></path><path id="Path_1513" data-name="Path 1513" d="M582.6,225.238a3.216,3.216,0,0,1,0-4.347A2.81,2.81,0,0,1,584.73,220a2.851,2.851,0,0,1,2.16.889,3.211,3.211,0,0,1,0,4.347,2.821,2.821,0,0,1-2.16.9,2.782,2.782,0,0,1-2.126-.9m4.862,19.9h-5.437V230.165a2.2,2.2,0,0,1,.744-1.806,3.23,3.23,0,0,1,2.093-.615,7.007,7.007,0,0,1,2.6.511Z" transform="translate(-414.133 -220)" fill="#1a263b"></path><path id="Path_1514" data-name="Path 1514" d="M614.1,231.454a2.212,2.212,0,0,1,.744-1.807,3.194,3.194,0,0,1,2.093-.614,7.037,7.037,0,0,1,2.6.513v4.6h3.883q2.8,0,2.8,2.455a5.229,5.229,0,0,1-.2,1.414,6.4,6.4,0,0,1-.473,1.246h-6.008v5.353a2.392,2.392,0,0,0,.641,1.788,2.532,2.532,0,0,0,1.858.632,5.874,5.874,0,0,0,1.552-.222,4.971,4.971,0,0,0,1.352-.564L627.07,250a6.311,6.311,0,0,1-1.639,1,11.846,11.846,0,0,1-2.245.734,11.136,11.136,0,0,1-2.431.272,6.884,6.884,0,0,1-4.812-1.67,5.822,5.822,0,0,1-1.842-4.534Z" transform="translate(-437.153 -226.405)" fill="#1a263b"></path><path id="Path_1515" data-name="Path 1515" d="M682.441,261.579q0,4.74-2.533,7.16a9.556,9.556,0,0,1-6.886,2.421,21.746,21.746,0,0,1-2.771-.188,21.274,21.274,0,0,1-2.634-.493,9.339,9.339,0,0,1-1.722-.58l1.318-4.025a6.865,6.865,0,0,0,1.251.426,15.353,15.353,0,0,0,1.855.359,14.557,14.557,0,0,0,1.926.136,6.092,6.092,0,0,0,3.546-.939,3.376,3.376,0,0,0,1.352-2.982v-.921a4.1,4.1,0,0,1-1.74,1.227,7.559,7.559,0,0,1-2.855.475,8.5,8.5,0,0,1-3.748-.8,6.165,6.165,0,0,1-3.579-5.813v-8.014a2.207,2.207,0,0,1,.741-1.806,3.2,3.2,0,0,1,2.1-.615,7.031,7.031,0,0,1,1.367.137,5.812,5.812,0,0,1,1.231.376v8.8a2.984,2.984,0,0,0,.827,2.318,3.3,3.3,0,0,0,2.313.749,3,3,0,0,0,2.449-.919,4.142,4.142,0,0,0,.76-2.694v-6.342a2.2,2.2,0,0,1,.744-1.806,3.214,3.214,0,0,1,2.092-.615,7,7,0,0,1,1.367.137,5.876,5.876,0,0,1,1.234.376Z" transform="translate(-473.543 -238.868)" fill="#1a263b"></path></g><g id="Group_462" data-name="Group 462" transform="translate(93.644 32.581)"><path id="Path_1516" data-name="Path 1516" d="M205.545,341.725a11.065,11.065,0,0,1,4.315-4.323,12.9,12.9,0,0,1,6.431-1.56,16.53,16.53,0,0,1,2.836.252,11.8,11.8,0,0,1,2.7.8,6.33,6.33,0,0,1,2.016,1.323,2.546,2.546,0,0,1,.773,1.864A3.509,3.509,0,0,1,224,342a5.363,5.363,0,0,1-1.525,1.574,7.586,7.586,0,0,0-2.636-1.864,8.236,8.236,0,0,0-3.308-.678,6.643,6.643,0,0,0-3.462.9,6.209,6.209,0,0,0-2.349,2.492,7.954,7.954,0,0,0-.843,3.761,6.7,6.7,0,0,0,1.9,5.035,7.085,7.085,0,0,0,5.154,1.85,10.653,10.653,0,0,0,2.939-.407,8.11,8.11,0,0,0,2.366-1.051l2.587,4.373a9.782,9.782,0,0,1-2.285,1.222,15.687,15.687,0,0,1-2.955.832,17.731,17.731,0,0,1-3.191.287,13.5,13.5,0,0,1-6.516-1.508,10.749,10.749,0,0,1-4.33-4.239,12.748,12.748,0,0,1-1.546-6.393,13.031,13.031,0,0,1,1.55-6.458" transform="translate(-203.995 -334.72)" fill="#1a263b"></path><path id="Path_1517" data-name="Path 1517" d="M291.183,356.992h-5.406v-22.58a2.206,2.206,0,0,1,.738-1.8A3.182,3.182,0,0,1,288.6,332a6.949,6.949,0,0,1,2.585.508Z" transform="translate(-262.21 -332.001)" fill="#1a263b"></path><path id="Path_1518" data-name="Path 1518" d="M323.6,375.072a9.55,9.55,0,0,1-4.8-1.222,9.25,9.25,0,0,1-3.408-3.287,9.1,9.1,0,0,1,0-9.239,9.3,9.3,0,0,1,3.408-3.27,10.09,10.09,0,0,1,9.621,0,9.364,9.364,0,0,1,3.391,3.27,9.108,9.108,0,0,1,0,9.239,9.31,9.31,0,0,1-3.391,3.291,9.532,9.532,0,0,1-4.82,1.219m2.822-12.155a3.9,3.9,0,0,0-5.557-.084l-.083.084a4.7,4.7,0,0,0,0,6.069,3.9,3.9,0,0,0,5.559.082c.029-.027.055-.054.082-.082a4.706,4.706,0,0,0,0-6.068Z" transform="translate(-282.397 -349.607)" fill="#1a263b"></path><path id="Path_1519" data-name="Path 1519" d="M404.715,368.7a6.977,6.977,0,0,1-2.284,5.509,10.752,10.752,0,0,1-12.543,0,6.957,6.957,0,0,1-2.3-5.509v-7.833a2.2,2.2,0,0,1,.74-1.8,3.179,3.179,0,0,1,2.081-.611,6.752,6.752,0,0,1,1.344.137,6.666,6.666,0,0,1,1.242.374v8.714q0,3.526,3.156,3.526t3.157-3.526v-6.815a2.195,2.195,0,0,1,.74-1.8,3.182,3.182,0,0,1,2.081-.611,6.777,6.777,0,0,1,1.344.137,6.58,6.58,0,0,1,1.242.374Z" transform="translate(-334.683 -350.758)" fill="#1a263b"></path><path id="Path_1520" data-name="Path 1520" d="M474.3,347.73a11.327,11.327,0,0,1-1.124,5.236,7.822,7.822,0,0,1-3.191,3.341,9.88,9.88,0,0,1-4.887,1.153,10.1,10.1,0,0,1-4.969-1.17,8.244,8.244,0,0,1-3.274-3.238,9.47,9.47,0,0,1-1.157-4.713,9.713,9.713,0,0,1,1.108-4.7,8.522,8.522,0,0,1,2.987-3.238,8.075,8.075,0,0,1,6.986-.7,5.709,5.709,0,0,1,2.115,1.373V332.5a6.7,6.7,0,0,1,1.259-.374,6.877,6.877,0,0,1,1.325-.136,3.188,3.188,0,0,1,2.083.611,2.2,2.2,0,0,1,.74,1.8Zm-11.989-2.423a4.721,4.721,0,0,0,0,6,3.987,3.987,0,0,0,5.574,0,4.729,4.729,0,0,0,0-6,3.986,3.986,0,0,0-5.574,0Z" transform="translate(-383.173 -331.994)" fill="#1a263b"></path></g><g id="Group_460" data-name="Group 460"><path id="Path_1536" data-name="Path 1536" d="M265.6,0a26.471,26.471,0,0,0-18.961,7.965c-2.8,2.778-7.177,5.31-14.115,5.31h-.113a19.913,19.913,0,0,0,0,39.826H265.6a26.551,26.551,0,0,0,0-53.1" transform="translate(-208.221 3.355)" fill="#fff"></path><path id="Path_1521" data-name="Path 1521" d="M270.128,0a28.593,28.593,0,0,0-20.577,8.727c-3.037,3.044-7.789,5.818-15.318,5.818h-.122a21.82,21.82,0,0,0,0,43.637h36.017a29.093,29.093,0,0,0,0-58.183m2.214,49.33-.878-4.775-.509-4.011c-.368-2.335-.072-3.108.028-3.289l.008-.013a3.119,3.119,0,0,1,1.534-.962l7.829-2.781c.047-.014.1-.029.145-.047,1.4-.534,2.807-1.274,2.807-2.844s-1.139-3.295-2.8-2.85h-.01l-.039.01-.036.012c-.086.025-.174.05-.263.079-1.631.487-9.55,2.756-15.132,2.756-5.185,0-12.389-1.96-14.694-2.626a6.466,6.466,0,0,0-.7-.23c-1.666-.446-2.807,1.276-2.807,2.847s1.376,2.3,2.766,2.831v.025l8.349,2.651c.853.333,1.081.672,1.193.966a8.674,8.674,0,0,1-.029,3.466l-.509,4.01-.88,4.9h-23.6a13.092,13.092,0,0,1,0-26.182h.122c8.553,0,15.956-2.888,21.407-8.352l.042-.042.041-.042a19.926,19.926,0,0,1,14.4-6.11,20.374,20.374,0,0,1,2.214,40.6" transform="translate(-212.501 0.001)" fill="#0490f0"></path><path id="Path_1522" data-name="Path 1522" d="M382.781,60.964a4.959,4.959,0,1,0,4.914,4.962v0a4.936,4.936,0,0,0-4.914-4.957" transform="translate(-330.222 -43.228)" fill="#0490f0"></path></g></g></g></svg> 