<?xml version="1.0" encoding="utf-8"?> <svg xmlns="http://www.w3.org/2000/svg" xmlns:xlink="http://www.w3.org/1999/xlink" version="1.1" id="Logo-H" x="0px" y="0px" viewBox="0 0 219.7 42.5" style="enable-background:new 0 0 219.7 42.5;" xml:space="preserve"> <style type="text/css"> .st0{fill:#FFFFFF;} .st1{fill:#0490F0;} </style> <path class="st0" d="M40.6,3.8c-5,0-9.7,1.9-13.1,5.2c-1.9,1.8-5,3.5-9.8,3.5h-0.1C9.8,12.6,3.6,18.6,3.8,25.8 c0.1,7.1,6.2,12.8,13.8,12.9h23c10.2-0.1,18.5-7.9,18.4-17.5C59.1,11.7,50.8,3.8,40.6,3.8"></path> <g id="Group_461" transform="translate(68.003 0)"> <path id="Path_1503" class="st0" d="M0,18.4c0.3-0.9,0.8-2,1.2-3.2s1-2.5,1.6-3.9C3.4,9.8,4,8.4,4.6,7s1.2-2.8,1.8-4.2 C6.6,2.2,7,1.6,7.5,1.3C8.1,1,8.7,0.8,9.3,0.8c0.3,0,0.6,0,0.8,0.1C10.4,1,10.7,1.1,11,1.2c0.2,0.1,0.4,0.2,0.6,0.3 c0.2,0.3,0.4,0.8,0.8,1.6c0.3,0.8,0.7,1.7,1.2,2.7C14,6.9,14.5,8,15,9.2s1,2.3,1.4,3.5c0.5,1.2,0.9,2.2,1.3,3.2 c0.4,1,0.7,1.8,0.9,2.5h-4.5c-0.2-0.6-0.4-1.2-0.6-1.8c-0.2-0.6-0.5-1.2-0.7-1.9H5.6c-0.2,0.5-0.4,1-0.6,1.6 c-0.2,0.6-0.4,1.3-0.7,2.1L0,18.4z M8.6,6.9C8.3,7.6,8.1,8.3,7.8,9l-0.7,1.9h4.3c-0.1-0.4-0.3-0.9-0.5-1.4s-0.4-1.1-0.6-1.6 s-0.4-1-0.6-1.5s-0.3-0.8-0.4-1C9,5.7,8.8,6.3,8.6,6.9L8.6,6.9z"></path> <path id="Path_1504" class="st0" d="M30.4,17.3c-0.7,0.5-1.5,0.8-2.3,1.1c-0.9,0.3-1.8,0.4-2.7,0.4c-1.2,0-2.5-0.3-3.5-0.8 c-1-0.5-1.8-1.4-2.4-2.4c-0.6-1.1-0.9-2.3-0.9-3.5c0-1.2,0.3-2.4,0.9-3.5c0.6-1,1.4-1.8,2.4-2.4c1.1-0.6,2.4-0.9,3.6-0.8 c0.8,0,1.6,0.1,2.4,0.3c0.6,0.2,1.2,0.5,1.7,0.9c0.4,0.3,0.6,0.8,0.6,1.3c0,0.4-0.1,0.9-0.4,1.2c-0.3,0.4-0.6,0.7-1,1 c-0.4-0.4-0.9-0.7-1.4-0.9C27,9,26.4,8.8,25.9,8.8c-1.6-0.1-3.1,1.2-3.2,2.8c0,0.1,0,0.2,0,0.4c0,0.8,0.3,1.7,0.9,2.3 c0.6,0.6,1.4,0.9,2.3,0.8c0.5,0,1.1-0.1,1.6-0.3c0.4-0.1,0.9-0.3,1.3-0.6L30.4,17.3z"></path> <path id="Path_1505" class="st0" d="M43,17.3c-0.7,0.5-1.5,0.8-2.3,1.1c-0.9,0.3-1.8,0.4-2.7,0.4c-1.2,0-2.5-0.3-3.5-0.8 c-1-0.5-1.8-1.4-2.4-2.4c-0.6-1.1-0.9-2.3-0.9-3.5c0-1.2,0.3-2.4,0.9-3.5c0.6-1,1.4-1.8,2.4-2.4c1.1-0.6,2.4-0.9,3.6-0.8 c0.8,0,1.6,0.1,2.4,0.3c0.6,0.2,1.2,0.5,1.7,0.9c0.4,0.3,0.6,0.8,0.6,1.3c0,0.4-0.1,0.9-0.4,1.2c-0.3,0.4-0.6,0.7-1,1 c-0.4-0.4-0.9-0.7-1.4-0.9C39.6,9,39,8.8,38.4,8.8c-1.7-0.1-3.1,1.2-3.2,2.8c0,0.1,0,0.2,0,0.4c0,0.8,0.3,1.7,0.9,2.3 c0.6,0.6,1.4,0.9,2.3,0.8c0.6,0,1.1-0.1,1.6-0.3c0.4-0.1,0.9-0.3,1.3-0.6L43,17.3z"></path> <path id="Path_1506" class="st0" d="M50.5,18.7c-1.2,0-2.4-0.3-3.4-0.8c-1-0.6-1.8-1.4-2.3-2.4c-0.6-1.1-0.9-2.3-0.8-3.5 c0-1.2,0.3-2.4,0.9-3.5c0.6-1,1.4-1.8,2.4-2.4c1.1-0.6,2.2-0.9,3.5-0.9c1,0,2,0.2,2.9,0.6c0.8,0.3,1.5,0.9,2,1.6 c0.5,0.7,0.7,1.5,0.7,2.3c0.1,1.2-0.5,2.4-1.6,3c-1.6,0.7-3.4,1.1-5.2,0.9c-0.3,0-0.6,0-0.8,0s-0.4,0-0.6,0c0.1,0.6,0.5,1,1,1.2 c0.7,0.3,1.5,0.5,2.2,0.5c0.4,0,0.8,0,1.1-0.1c0.4-0.1,0.8-0.2,1.2-0.3c0.3-0.1,0.6-0.2,0.8-0.4l1.4,2.8c-0.5,0.3-1,0.5-1.5,0.7 c-0.6,0.2-1.3,0.4-1.9,0.5C51.9,18.6,51.2,18.7,50.5,18.7 M50.6,8.4C49.2,8.4,48,9.5,48,11c0,0,0,0.1,0,0.1c0.1,0,0.3,0,0.4,0h0.4 c1,0.1,1.9-0.1,2.9-0.4c0.6-0.2,0.9-0.6,0.9-1.1c0-0.4-0.2-0.7-0.5-0.9C51.6,8.5,51.1,8.4,50.6,8.4L50.6,8.4z"></path> <path id="Path_1507" class="st0" d="M58.2,9.6c-0.1-1.3,0.5-2.5,1.5-3.2c1.4-0.8,3-1.2,4.6-1.1c1.3-0.1,2.6,0.2,3.9,0.6 c1,0.4,1.4,1,1.4,1.7c0,0.4-0.1,0.7-0.3,1c-0.2,0.3-0.5,0.6-0.8,0.8c-0.3-0.3-0.6-0.5-1-0.6c-0.5-0.2-1.1-0.3-1.6-0.4 c-0.6-0.1-1.1-0.2-1.7-0.2c-1.3,0-2,0.3-2,0.9c0,0.3,0.1,0.5,0.4,0.6c0.4,0.2,0.8,0.3,1.2,0.3l2.2,0.3c2.9,0.4,4.3,1.7,4.3,3.9 c0,1.3-0.5,2.5-1.6,3.2c-1.3,0.9-2.8,1.3-4.3,1.2c-1.7,0-3.3-0.3-4.9-0.8c-0.6-0.2-1.1-0.5-1.6-0.8l1.4-2.6 c0.6,0.4,1.3,0.7,2.1,0.9c0.9,0.2,1.8,0.4,2.8,0.4c1.4,0,2-0.3,2-0.9c0-0.3-0.2-0.5-0.4-0.6c-0.4-0.2-0.9-0.3-1.4-0.4l-2.2-0.3 C59.5,13.2,58.2,11.9,58.2,9.6"></path> <path id="Path_1508" class="st0" d="M72.1,9.6c-0.1-1.3,0.5-2.5,1.5-3.2c1.4-0.8,3-1.2,4.6-1.1c1.3-0.1,2.6,0.2,3.9,0.6 c1,0.4,1.4,1,1.4,1.7c0,0.4-0.1,0.7-0.3,1c-0.2,0.3-0.5,0.6-0.8,0.8c-0.3-0.3-0.6-0.5-1-0.6c-0.5-0.2-1.1-0.3-1.6-0.4 c-0.6-0.1-1.1-0.2-1.7-0.2c-1.3,0-2,0.3-2,0.9c0,0.3,0.1,0.5,0.4,0.6c0.4,0.2,0.8,0.3,1.2,0.3l2.2,0.3c2.9,0.4,4.3,1.7,4.3,3.9 c0,1.3-0.5,2.5-1.6,3.3c-1.3,0.9-2.8,1.3-4.3,1.2c-1.7,0-3.3-0.3-4.9-0.8c-0.6-0.2-1.1-0.5-1.6-0.8l1.4-2.6 c0.6,0.4,1.3,0.7,2.1,0.9c0.9,0.2,1.8,0.4,2.8,0.4c1.4,0,2-0.3,2-0.9c0-0.3-0.2-0.5-0.4-0.6c-0.4-0.2-0.9-0.3-1.4-0.4L76,13.6 C73.4,13.2,72.1,11.9,72.1,9.6"></path> <path id="Path_1509" class="st0" d="M86.4,3.8c-0.8-0.9-0.8-2.3,0-3.2C86.8,0.2,87.4,0,88,0c0.6,0,1.2,0.2,1.6,0.6 c0.8,0.9,0.8,2.3,0,3.2c-0.4,0.4-1,0.7-1.6,0.7C87.4,4.5,86.8,4.3,86.4,3.8 M89.9,18.4H86V7.4c0-0.5,0.2-1,0.5-1.3 c0.4-0.3,1-0.5,1.5-0.4c0.6,0,1.3,0.1,1.9,0.4L89.9,18.4z"></path> <path id="Path_1510" class="st0" d="M92.3,1.8c0-0.5,0.2-1,0.5-1.3c0.4-0.3,1-0.5,1.5-0.4c0.3,0,0.7,0,1,0.1 c0.3,0.1,0.6,0.2,0.9,0.3v6.3c0.4-0.4,1-0.8,1.5-1c1.7-0.6,3.6-0.4,5.1,0.5c0.9,0.6,1.7,1.4,2.2,2.4c0.6,1.1,0.8,2.3,0.8,3.5 c0,1.2-0.3,2.4-0.8,3.5c-0.6,1-1.4,1.8-2.4,2.4c-1.1,0.6-2.4,0.9-3.6,0.9c-1.2,0-2.5-0.3-3.6-0.8c-1-0.6-1.8-1.4-2.3-2.5 c-0.6-1.2-0.9-2.5-0.8-3.8L92.3,1.8z M101,9.8c-1.1-1.1-2.9-1.1-4.1,0c-1,1.3-1,3.1,0,4.4c1.1,1.1,2.9,1.1,4.1,0 C102.1,12.9,102.1,11.1,101,9.8"></path> <path id="Path_1511" class="st0" d="M108.6,3.8c-0.8-0.9-0.8-2.3,0-3.2c0.4-0.4,1-0.7,1.5-0.6c0.6,0,1.2,0.2,1.6,0.6 c0.8,0.9,0.8,2.3,0,3.2c-0.4,0.4-1,0.7-1.6,0.7C109.6,4.5,109,4.3,108.6,3.8 M112.1,18.4h-3.9V7.4c0-0.5,0.2-1,0.5-1.3 c0.4-0.3,1-0.5,1.5-0.4c0.6,0,1.3,0.1,1.9,0.4L112.1,18.4z"></path> <path id="Path_1512" class="st0" d="M119.1,18.4h-4V1.8c0-0.5,0.2-1,0.5-1.3c0.4-0.3,1-0.5,1.5-0.4c0.3,0,0.7,0,1,0.1 c0.3,0.1,0.6,0.2,0.9,0.3L119.1,18.4z"></path> <path id="Path_1513" class="st0" d="M122.3,3.8c-0.8-0.9-0.8-2.3,0-3.2c0.4-0.4,1-0.7,1.5-0.6c0.6,0,1.2,0.2,1.6,0.6 c0.8,0.9,0.8,2.3,0,3.2c-0.4,0.4-1,0.7-1.6,0.7C123.3,4.5,122.7,4.3,122.3,3.8 M125.9,18.4h-3.9V7.4c0-0.5,0.2-1,0.5-1.3 c0.4-0.3,1-0.5,1.5-0.4c0.6,0,1.3,0.1,1.9,0.4V18.4z"></path> <path id="Path_1514" class="st0" d="M128.5,3.7c0-0.5,0.2-1,0.5-1.3c0.4-0.3,1-0.5,1.5-0.4c0.6,0,1.3,0.1,1.9,0.4v3.4h2.8 c1.4,0,2,0.6,2,1.8c0,0.3-0.1,0.7-0.1,1c-0.1,0.3-0.2,0.6-0.3,0.9h-4.4v3.9c0,0.5,0.1,1,0.5,1.3c0.4,0.3,0.9,0.5,1.3,0.5 c0.4,0,0.8-0.1,1.1-0.2c0.3-0.1,0.7-0.2,1-0.4l1.5,2.7c-0.4,0.3-0.8,0.6-1.2,0.7c-0.5,0.2-1.1,0.4-1.6,0.5 c-0.6,0.1-1.2,0.2-1.8,0.2c-1.3,0.1-2.5-0.4-3.5-1.2c-0.9-0.9-1.4-2.1-1.3-3.3L128.5,3.7z"></path> <path id="Path_1515" class="st0" d="M151.7,16.6c0.4,3.4-2,6.6-5.5,7c-0.4,0.1-0.9,0.1-1.3,0c-0.7,0-1.3,0-2-0.1 c-0.6-0.1-1.3-0.2-1.9-0.4c-0.4-0.1-0.8-0.2-1.3-0.4l1-2.9c0.3,0.1,0.6,0.2,0.9,0.3c0.4,0.1,0.9,0.2,1.3,0.3 c0.5,0.1,0.9,0.1,1.4,0.1c0.9,0,1.8-0.2,2.6-0.7c0.7-0.5,1.1-1.3,1-2.2v-0.7c-0.3,0.4-0.8,0.7-1.3,0.9c-0.7,0.2-1.4,0.4-2.1,0.3 c-0.9,0-1.9-0.2-2.7-0.6c-1.6-0.8-2.7-2.4-2.6-4.2V7.4c0-0.5,0.2-1,0.5-1.3c0.4-0.3,1-0.5,1.5-0.4c0.3,0,0.7,0,1,0.1 c0.3,0.1,0.6,0.2,0.9,0.3v6.4c-0.1,0.6,0.2,1.2,0.6,1.7c0.5,0.4,1.1,0.6,1.7,0.5c0.7,0.1,1.3-0.2,1.8-0.7c0.4-0.6,0.6-1.3,0.6-2 V7.4c0-0.5,0.2-1,0.5-1.3c0.4-0.3,1-0.5,1.5-0.4c0.3,0,0.7,0,1,0.1c0.3,0.1,0.6,0.2,0.9,0.3L151.7,16.6z"></path> </g> <g id="Group_462" transform="translate(68.003 23.807)"> <path id="Path_1516" class="st0" d="M1.1,5.1C1.9,3.8,2.9,2.7,4.3,2c1.4-0.8,3-1.2,4.7-1.1c0.7,0,1.4,0.1,2.1,0.2 c0.7,0.1,1.3,0.3,2,0.6c0.5,0.2,1,0.6,1.5,1C14.8,2.9,15,3.4,15,3.9c0,0.5-0.2,1-0.5,1.4c-0.3,0.5-0.7,0.8-1.1,1.1 c-0.5-0.6-1.2-1.1-1.9-1.4c-0.8-0.3-1.6-0.5-2.4-0.5c-0.9,0-1.8,0.2-2.5,0.7C5.9,5.7,5.3,6.3,4.9,7.1C4.5,7.9,4.2,8.9,4.3,9.8 c-0.1,1.4,0.4,2.7,1.4,3.7c1,0.9,2.4,1.4,3.7,1.4c0.7,0,1.4-0.1,2.1-0.3c0.6-0.2,1.2-0.4,1.7-0.8l1.9,3.2c-0.5,0.4-1.1,0.7-1.7,0.9 c-0.7,0.3-1.4,0.5-2.1,0.6c-0.8,0.1-1.5,0.2-2.3,0.2c-1.6,0-3.3-0.3-4.7-1.1c-1.3-0.7-2.4-1.8-3.1-3.1C0.4,13.1,0,11.5,0,9.8 C0,8.2,0.4,6.6,1.1,5.1"></path> <path id="Path_1517" class="st0" d="M21,18.3h-3.9V1.8c0-0.5,0.2-1,0.5-1.3c0.4-0.3,1-0.5,1.5-0.4c0.6,0,1.3,0.1,1.9,0.4L21,18.3z"></path> <path id="Path_1518" class="st0" d="M29.9,18.6c-1.2,0-2.4-0.3-3.5-0.9c-3.2-1.8-4.3-5.8-2.6-9c0.6-1.1,1.5-2,2.6-2.6 c2.2-1.2,4.8-1.2,7,0c1,0.6,1.9,1.4,2.5,2.4c1.2,2.1,1.2,4.7,0,6.8c-0.6,1-1.4,1.8-2.5,2.4C32.4,18.3,31.1,18.6,29.9,18.6 M32,9.7 c-1.1-1.1-2.9-1.2-4-0.1c0,0,0,0,0,0l-0.1,0.1c-1.1,1.3-1.1,3.2,0,4.4c1.1,1.1,2.9,1.2,4,0.1c0,0,0,0,0,0c0,0,0,0,0.1-0.1 C33,12.9,33,11,32,9.7L32,9.7z"></path> <path id="Path_1519" class="st0" d="M50.9,13.1c0.1,1.5-0.5,3-1.7,4c-2.7,2-6.4,2-9.1,0c-1.1-1-1.7-2.5-1.7-4V7.4 c0-0.5,0.2-1,0.5-1.3c0.4-0.3,1-0.5,1.5-0.4c0.3,0,0.7,0,1,0.1c0.3,0.1,0.6,0.2,0.9,0.3v6.4c0,1.7,0.8,2.6,2.3,2.6s2.3-0.9,2.3-2.6 v-5c0-0.5,0.2-1,0.5-1.3c0.4-0.3,1-0.5,1.5-0.4c0.3,0,0.7,0,1,0.1c0.3,0.1,0.6,0.2,0.9,0.3V13.1z"></path> <path id="Path_1520" class="st0" d="M66.2,11.5c0,1.3-0.2,2.6-0.8,3.8c-0.5,1-1.3,1.9-2.3,2.4c-1.1,0.6-2.3,0.9-3.5,0.8 c-1.3,0-2.5-0.3-3.6-0.9c-1-0.5-1.8-1.4-2.4-2.4c-0.6-1.1-0.9-2.2-0.8-3.4c0-1.2,0.3-2.4,0.8-3.4c0.5-1,1.3-1.8,2.2-2.4 C57.2,5.2,59,5,60.7,5.6c0.6,0.2,1.1,0.6,1.5,1V0.4c0.3-0.1,0.6-0.2,0.9-0.3C63.5,0,63.8,0,64.1,0c0.5,0,1.1,0.1,1.5,0.4 c0.4,0.3,0.6,0.8,0.5,1.3L66.2,11.5z M57.5,9.7c-1,1.3-1,3.1,0,4.4c1.1,1.1,2.9,1.1,4,0c1-1.3,1-3.1,0-4.4 C60.4,8.6,58.6,8.6,57.5,9.7z"></path> </g> <g id="Group_460"> <path id="Path_1521" class="st1" d="M41.8,0c-5.6,0-11,2.3-14.9,6.4c-2.2,2.2-5.7,4.3-11.1,4.3h-0.1C6.9,10.8-0.1,18,0,26.8 c0.1,8.6,7.1,15.6,15.7,15.7h26.2c11.6-0.1,21-9.6,20.9-21.3C62.9,9.6,53.5,0.1,41.8,0 M43.5,36l-0.6-3.5l-0.4-2.9 c-0.2-0.8-0.2-1.6,0-2.4l0,0c0.3-0.3,0.7-0.6,1.1-0.7l5.7-2c0,0,0.1,0,0.1,0c1-0.4,2-0.9,2-2.1s-0.8-2.4-2-2.1h0l0,0l0,0 c-0.1,0-0.1,0-0.2,0.1c-1.2,0.4-6.9,2-11,2c-3.8,0-9-1.4-10.7-1.9c-0.2-0.1-0.3-0.1-0.5-0.2c-1.2-0.3-2,0.9-2,2.1s1,1.7,2,2.1v0 l6.1,1.9c0.6,0.2,0.8,0.5,0.9,0.7c0.2,0.8,0.2,1.7,0,2.5l-0.4,2.9l-0.6,3.6H15.7c-5.3-0.1-9.5-4.4-9.4-9.7c0.1-5.2,4.3-9.4,9.4-9.4 h0.1c5.8,0.2,11.4-2,15.5-6.1l0,0l0,0c2.7-2.9,6.5-4.5,10.5-4.5c8.2,0.1,14.8,6.9,14.7,15.1C56.4,28.9,50.8,35.1,43.5,36"></path> <path id="Path_1522" class="st1" d="M38.2,13c-2,0-3.7,1.6-3.7,3.6c0,2,1.6,3.7,3.6,3.7c2,0,3.7-1.6,3.7-3.6c0,0,0,0,0-0.1l0,0 C41.7,14.6,40.1,13,38.2,13"></path> </g> </svg> 